<svg xmlns="http://www.w3.org/2000/svg" viewBox="0 0 200 50" fill="none">
  <defs>
    <linearGradient id="heartGrad" x1="0" y1="0" x2="1" y2="1">
      <stop offset="0%" stop-color="#EF4444"/>
      <stop offset="100%" stop-color="#DC2626"/>
    </linearGradient>
    <linearGradient id="textGrad" x1="0" y1="0" x2="1" y2="0">
      <stop offset="0%" stop-color="#1E293B"/>
      <stop offset="100%" stop-color="#334155"/>
    </linearGradient>
  </defs>
  <g transform="translate(2, 8)">
    <path d="M24 34C24 34 8 22 8 14C8 8.5 12 5 16 5C19 5 22 7.5 24 10C26 7.5 29 5 32 5C36 5 40 8.5 40 14C40 22 24 34 24 34Z" fill="url(#heartGrad)" stroke="#B91C1C" stroke-width="1.2"/>
    <path d="M20 15L24 12L28 15L27 20L24 23L21 20L20 15Z" fill="white" opacity="0.9"/>
  </g>
  <text x="52" y="30" font-family="system-ui, -apple-system, sans-serif" font-weight="800" font-size="20" fill="url(#textGrad)" letter-spacing="-0.5">Care</text>
  <text x="100" y="30" font-family="system-ui, -apple-system, sans-serif" font-weight="400" font-size="20" fill="#64748B" letter-spacing="-0.3">Manager</text>
  <text x="52" y="42" font-family="system-ui, -apple-system, sans-serif" font-weight="500" font-size="9" fill="#94A3B8" letter-spacing="1.5">CABINET DE CARDIOLOGIE</text>
</svg>
